<?xml version="1.0" encoding="UTF-8" standalone="no"?>
<svg
   version="1.1"
   x="0px"
   y="0px"
   width="64"
   height="64"
   viewBox="0 0 64 64"
   enable-background="new 0 0 64 64"
   xml:space="preserve"
   id="svg9"
   sodipodi:docname="icon-m-patchmanager-new4.svg"
   inkscape:version="1.2.1 (9c6d41e410, 2022-07-14)"
   inkscape:export-filename="/home/user1/git/Sailfish-icons/other/general/patchmanager/patchmanager.menu.icon.086_v2.png"
   inkscape:export-xdpi="96"
   inkscape:export-ydpi="96"
   xmlns:inkscape="http://www.inkscape.org/namespaces/inkscape"
   xmlns:sodipodi="http://sodipodi.sourceforge.net/DTD/sodipodi-0.dtd"
   xmlns="http://www.w3.org/2000/svg"
   xmlns:svg="http://www.w3.org/2000/svg"
   xmlns:rdf="http://www.w3.org/1999/02/22-rdf-syntax-ns#"
   xmlns:cc="http://creativecommons.org/ns#"
   xmlns:dc="http://purl.org/dc/elements/1.1/"><title
   id="title17">Patchmanager's &quot;patch&quot; outline</title><metadata
   id="metadata15"><rdf:RDF><cc:Work
       rdf:about=""><dc:format>image/svg+xml</dc:format><dc:type
         rdf:resource="http://purl.org/dc/dcmitype/StillImage" /><dc:title>Patchmanager's &quot;patch&quot; outline</dc:title><cc:license
         rdf:resource="https://spdx.org/licenses/BSD-3-Clause.html" /><dc:source>https://codeberg.org/marbalf/Sailfish-icons/src/branch/main/other/general/patchmanager</dc:source><dc:date>June 2025</dc:date><dc:creator><cc:Agent><dc:title>marbalf (MBF)</dc:title></cc:Agent></dc:creator><dc:rights><cc:Agent><dc:title>BSD 3-Clause &quot;New&quot; or &quot;Revised&quot; License</dc:title></cc:Agent></dc:rights><dc:description>Outline of the &quot;patch&quot; object in Patchmanager's icon</dc:description><dc:subject><rdf:Bag><rdf:li>Patchmanager</rdf:li><rdf:li>icon</rdf:li></rdf:Bag></dc:subject><dc:publisher><cc:Agent><dc:title>olf (Olf0)</dc:title></cc:Agent></dc:publisher><dc:contributor><cc:Agent><dc:title>olf (Olf0)</dc:title></cc:Agent></dc:contributor></cc:Work></rdf:RDF></metadata><defs
   id="defs9"><rect
     x="42.695034"
     y="32.064842"
     width="25.704153"
     height="25.442757"
     id="rect17" /><rect
     x="43.827763"
     y="32.326241"
     width="27.882471"
     height="25.442757"
     id="rect16" /><rect
     x="12.982776"
     y="36.682877"
     width="22.828775"
     height="23.003038"
     id="rect15" /></defs><sodipodi:namedview
   id="namedview9"
   pagecolor="#505050"
   bordercolor="#ffffff"
   borderopacity="1"
   inkscape:showpageshadow="0"
   inkscape:pageopacity="0"
   inkscape:pagecheckerboard="1"
   inkscape:deskcolor="#505050"
   showgrid="false"
   inkscape:zoom="8.9567676"
   inkscape:cx="3.0703041"
   inkscape:cy="44.268202"
   inkscape:window-width="1918"
   inkscape:window-height="1128"
   inkscape:window-x="-7"
   inkscape:window-y="0"
   inkscape:window-maximized="0"
   inkscape:current-layer="g17"
   inkscape:document-rotation="0" />

<g
   id="g17"
   inkscape:label="patch"
   transform="rotate(15,43,43)"
   style="display:inline;opacity:1"><path
     id="rect13"
     style="display:inline;fill:none;fill-rule:evenodd;stroke:#ffffff;stroke-width:0.433933;stroke-dasharray:none;stroke-opacity:1"
     d="m 4.5413427,25.744829 49.9731463,-5.78e-4 c 2.386649,-2.7e-5 4.308007,1.921255 4.30798,4.307806 l -1.2e-4,10.338859 c -2.8e-5,2.386553 -1.921432,4.307879 -4.30808,4.307907 L 4.5411236,44.6994 c -2.386648,2.8e-5 -4.30800724,-1.921254 -4.30798004,-4.307807 l 1.2e-4,-10.338857 c 2.72e-5,-2.386554 1.92143054,-4.30788 4.30807914,-4.307907 z" /><path
     id="rect14"
     style="display:inline;fill:#ffffff;fill-opacity:1;fill-rule:evenodd;stroke-width:0.867865"
     d="m 20.739146,25.221483 c -0.707422,0.219112 -1.217535,0.876871 -1.217535,1.658167 l -5.72e-4,16.488707 c 0,0.961597 0.77395,1.735541 1.735547,1.735541 l 16.488706,5.72e-4 c 0.961598,0 1.735542,-0.77395 1.735542,-1.735547 l 5.71e-4,-16.488707 c 0,-0.961597 -0.77395,-1.73554 -1.735546,-1.73554 l -16.488707,-5.72e-4 c -0.180299,0 -0.354753,0.02682 -0.518006,0.07738 z m 3.539561,3.019289 a 1.7357345,1.7357345 0 0 1 0.449238,-0.05895 1.7357345,1.7357345 0 0 1 1.735547,1.735541 1.7357345,1.7357345 0 0 1 -1.735541,1.735547 1.7357345,1.7357345 0 0 1 -1.735546,-1.735541 1.7357345,1.7357345 0 0 1 1.286302,-1.676594 z m 9.546531,5.84e-4 a 1.7357345,1.7357345 0 0 1 0.448799,-0.06059 1.7357345,1.7357345 0 0 1 1.735987,1.737178 1.7357345,1.7357345 0 0 1 -1.735542,1.735547 1.7357345,1.7357345 0 0 1 -1.735986,-1.737178 1.7357345,1.7357345 0 0 1 1.286742,-1.674957 z m -9.546513,10.412681 a 1.7357345,1.7357345 0 0 1 0.449237,-0.05895 1.7357345,1.7357345 0 0 1 1.735986,1.737178 1.7357345,1.7357345 0 0 1 -1.735541,1.735547 1.7357345,1.7357345 0 0 1 -1.735986,-1.737178 1.7357345,1.7357345 0 0 1 1.286304,-1.676593 z m 9.54653,5.83e-4 a 1.7357345,1.7357345 0 0 1 0.449238,-0.05895 1.7357345,1.7357345 0 0 1 1.735547,1.735542 1.7357345,1.7357345 0 0 1 -1.735541,1.735546 1.7357345,1.7357345 0 0 1 -1.735547,-1.735541 1.7357345,1.7357345 0 0 1 1.286303,-1.676593 z" /><text
     xml:space="preserve"
     id="text16"
     style="font-size:18.6667px;text-align:start;writing-mode:lr-tb;direction:ltr;white-space:pre;shape-inside:url(#rect17);display:inline;opacity:1;fill:#ffffff;fill-opacity:1;fill-rule:evenodd;stroke-width:0.836272"
     transform="matrix(1.0377815,0,0,1.0377815,0.33424706,-16.838826)"><tspan
       x="42.695312"
       y="49.048821"
       id="tspan458">_</tspan></text><text
     xml:space="preserve"
     id="text14"
     style="font-size:18.6667px;text-align:start;writing-mode:lr-tb;direction:ltr;white-space:pre;shape-inside:url(#rect15);shape-padding:0;display:inline;opacity:1;fill:#ffffff;fill-opacity:1;fill-rule:evenodd;stroke-width:0.890306"
     transform="matrix(0.98920593,0,0,0.96059662,-8.2654579,-10.48037)"
     inkscape:label="text14"><tspan
       x="12.982422"
       y="53.667961"
       id="tspan460">+</tspan></text></g>
</svg>
