<?xml version="1.0" encoding="UTF-8" standalone="no"?>
<svg
   xmlns:dc="http://purl.org/dc/elements/1.1/"
   xmlns:cc="http://creativecommons.org/ns#"
   xmlns:rdf="http://www.w3.org/1999/02/22-rdf-syntax-ns#"
   xmlns:svg="http://www.w3.org/2000/svg"
   xmlns="http://www.w3.org/2000/svg"
   xmlns:sodipodi="http://sodipodi.sourceforge.net/DTD/sodipodi-0.dtd"
   xmlns:inkscape="http://www.inkscape.org/namespaces/inkscape"
   version="1.1"
   x="0px"
   y="0px"
   width="86px"
   height="86px"
   viewBox="0 0 86 86"
   enable-background="new 0 0 86 86"
   xml:space="preserve"
   id="svg9"
   sodipodi:docname="patchmanager.menu.icon_v2.svg"
   inkscape:version="1.0.1 (3bc2e813f5, 2020-09-07)"
   inkscape:export-filename="/home/user1/git/Sailfish-icons/other/general/patchmanager/patchmanager.menu.icon.086_v2.png"
   inkscape:export-xdpi="96"
   inkscape:export-ydpi="96"><title
   id="title17">Patchmanager's &quot;patch&quot; outline</title><metadata
   id="metadata15"><rdf:RDF><cc:Work
       rdf:about=""><dc:format>image/svg+xml</dc:format><dc:type
         rdf:resource="http://purl.org/dc/dcmitype/StillImage" /><dc:title>Patchmanager's &quot;patch&quot; outline</dc:title><cc:license
         rdf:resource="https://spdx.org/licenses/BSD-3-Clause.html" /><dc:source>https://codeberg.org/marbalf/Sailfish-icons/src/branch/main/other/general/patchmanager</dc:source><dc:date>June 2025</dc:date><dc:creator><cc:Agent><dc:title>marbalf (MBF)</dc:title></cc:Agent></dc:creator><dc:rights><cc:Agent><dc:title>BSD 3-Clause &quot;New&quot; or &quot;Revised&quot; License</dc:title></cc:Agent></dc:rights><dc:description>Outline of the &quot;patch&quot; object in Patchmanager's icon</dc:description><dc:subject><rdf:Bag><rdf:li>Patchmanager</rdf:li><rdf:li>icon</rdf:li></rdf:Bag></dc:subject><dc:publisher><cc:Agent><dc:title>olf (Olf0)</dc:title></cc:Agent></dc:publisher><dc:contributor><cc:Agent><dc:title>olf (Olf0)</dc:title></cc:Agent></dc:contributor></cc:Work></rdf:RDF></metadata><defs
   id="defs9"><rect
     x="42.695035"
     y="32.064843"
     width="25.704154"
     height="25.442756"
     id="rect17" /><rect
     x="43.827761"
     y="32.326241"
     width="27.882472"
     height="25.442756"
     id="rect16" /><rect
     x="12.982776"
     y="36.682877"
     width="22.828775"
     height="23.003039"
     id="rect15" /></defs><sodipodi:namedview
   id="namedview9"
   pagecolor="#505050"
   bordercolor="#ffffff"
   borderopacity="1"
   inkscape:showpageshadow="0"
   inkscape:pageopacity="0"
   inkscape:pagecheckerboard="1"
   inkscape:deskcolor="#505050"
   showgrid="false"
   inkscape:zoom="8.9567676"
   inkscape:cx="24.834696"
   inkscape:cy="44.053027"
   inkscape:window-width="1920"
   inkscape:window-height="1025"
   inkscape:window-x="0"
   inkscape:window-y="0"
   inkscape:window-maximized="1"
   inkscape:current-layer="g17"
   inkscape:document-rotation="0" />

<g
   id="g17"
   inkscape:label="patch"
   transform="rotate(15,43,43)"
   style="display:inline;opacity:1"><path
     id="rect13"
     style="display:inline;fill:none;fill-rule:evenodd;stroke:#ffffff;stroke-width:0.5;stroke-dasharray:none;stroke-opacity:1"
     d="m 14.23998,32.192519 57.581556,-6.66e-4 c 2.750016,-3.1e-5 4.963902,2.213766 4.96387,4.963671 l -1.38e-4,11.912949 c -3.2e-5,2.749905 -2.213969,4.963754 -4.963985,4.963786 l -57.581556,6.65e-4 c -2.750015,3.2e-5 -4.9639009,-2.213765 -4.9638691,-4.963671 l 1.377e-4,-11.912948 c 3.18e-5,-2.749906 2.2139684,-4.963754 4.9639844,-4.963786 z" /><path
     id="rect14"
     style="display:inline;fill:#ffffff;fill-opacity:1;fill-rule:evenodd"
     d="m 32.903899,31.589494 c -0.815128,0.252472 -1.402906,1.010374 -1.402906,1.910624 l -6.59e-4,18.999112 c 0,1.108 0.891784,1.999777 1.999784,1.999777 l 18.999112,6.59e-4 c 1.108,0 1.999777,-0.891784 1.999777,-1.999784 l 6.59e-4,-18.999112 c 0,-1.108 -0.891784,-1.999777 -1.999784,-1.999777 L 33.50077,31.500334 c -0.20775,0 -0.408764,0.0309 -0.596871,0.08916 z m 4.078458,3.478976 a 2,2 0 0 1 0.517635,-0.06793 2,2 0 0 1 1.999784,1.999778 2,2 0 0 1 -1.999777,1.999784 2,2 0 0 1 -1.999784,-1.999778 2,2 0 0 1 1.482142,-1.931854 z m 10.99999,6.73e-4 a 2,2 0 0 1 0.517129,-0.06982 2,2 0 0 1 2.00029,2.001664 2,2 0 0 1 -1.999778,1.999784 2,2 0 0 1 -2.000289,-2.001664 2,2 0 0 1 1.482648,-1.929968 z m -10.99997,11.998011 a 2,2 0 0 1 0.517635,-0.06793 2,2 0 0 1 2.000289,2.001664 2,2 0 0 1 -1.999777,1.999784 2,2 0 0 1 -2.00029,-2.001664 2,2 0 0 1 1.482143,-1.931854 z m 10.99999,6.72e-4 a 2,2 0 0 1 0.517634,-0.06793 2,2 0 0 1 1.999784,1.999778 2,2 0 0 1 -1.999777,1.999784 2,2 0 0 1 -1.999784,-1.999778 2,2 0 0 1 1.482143,-1.931854 z" /><text
     xml:space="preserve"
     id="text16"
     style="font-size:18.6667px;text-align:start;writing-mode:lr-tb;direction:ltr;white-space:pre;shape-inside:url(#rect17);display:inline;opacity:1;fill:#ffffff;fill-opacity:1;fill-rule:evenodd;stroke-width:0.836272;"
     transform="matrix(1.1957837,0,0,1.1957837,9.3923538,-16.874497)"><tspan
       x="42.695312"
       y="49.228868"><tspan>_</tspan></tspan></text><text
     xml:space="preserve"
     id="text14"
     style="font-size:18.6667px;text-align:start;writing-mode:lr-tb;direction:ltr;white-space:pre;shape-inside:url(#rect15);shape-padding:0;display:inline;opacity:1;fill:#ffffff;fill-opacity:1;fill-rule:evenodd;stroke-width:0.890306;"
     transform="matrix(1.1398126,0,0,1.1068474,-0.51665565,-9.5479655)"
     inkscape:label="text14"><tspan
       x="12.982422"
       y="53.848008"><tspan>+</tspan></tspan></text></g>
</svg>
