<?xml version="1.0" encoding="UTF-8" standalone="no"?>
<svg
   version="1.1"
   x="0px"
   y="0px"
   width="64"
   height="64"
   viewBox="0 0 64 64"
   enable-background="new 0 0 64 64"
   xml:space="preserve"
   id="svg9"
   sodipodi:docname="icon-m-patchmanager-new.svg"
   inkscape:version="1.2.1 (9c6d41e410, 2022-07-14)"
   inkscape:export-filename="/home/user1/git/Sailfish-icons/other/general/patchmanager/patchmanager.menu.icon.086_v2.png"
   inkscape:export-xdpi="96"
   inkscape:export-ydpi="96"
   xmlns:inkscape="http://www.inkscape.org/namespaces/inkscape"
   xmlns:sodipodi="http://sodipodi.sourceforge.net/DTD/sodipodi-0.dtd"
   xmlns="http://www.w3.org/2000/svg"
   xmlns:svg="http://www.w3.org/2000/svg"
   xmlns:rdf="http://www.w3.org/1999/02/22-rdf-syntax-ns#"
   xmlns:cc="http://creativecommons.org/ns#"
   xmlns:dc="http://purl.org/dc/elements/1.1/"><title
   id="title17">Patchmanager's &quot;patch&quot; outline</title><metadata
   id="metadata15"><rdf:RDF><cc:Work
       rdf:about=""><dc:format>image/svg+xml</dc:format><dc:type
         rdf:resource="http://purl.org/dc/dcmitype/StillImage" /><dc:title>Patchmanager's &quot;patch&quot; outline</dc:title><cc:license
         rdf:resource="https://spdx.org/licenses/BSD-3-Clause.html" /><dc:source>https://codeberg.org/marbalf/Sailfish-icons/src/branch/main/other/general/patchmanager</dc:source><dc:date>June 2025</dc:date><dc:creator><cc:Agent><dc:title>marbalf (MBF)</dc:title></cc:Agent></dc:creator><dc:rights><cc:Agent><dc:title>BSD 3-Clause &quot;New&quot; or &quot;Revised&quot; License</dc:title></cc:Agent></dc:rights><dc:description>Outline of the &quot;patch&quot; object in Patchmanager's icon</dc:description><dc:subject><rdf:Bag><rdf:li>Patchmanager</rdf:li><rdf:li>icon</rdf:li></rdf:Bag></dc:subject><dc:publisher><cc:Agent><dc:title>olf (Olf0)</dc:title></cc:Agent></dc:publisher><dc:contributor><cc:Agent><dc:title>olf (Olf0)</dc:title></cc:Agent></dc:contributor></cc:Work></rdf:RDF></metadata><defs
   id="defs9"><rect
     x="42.695034"
     y="32.064842"
     width="25.704153"
     height="25.442757"
     id="rect17" /><rect
     x="43.827763"
     y="32.326241"
     width="27.882471"
     height="25.442757"
     id="rect16" /><rect
     x="12.982776"
     y="36.682877"
     width="22.828775"
     height="23.003038"
     id="rect15" /></defs><sodipodi:namedview
   id="namedview9"
   pagecolor="#505050"
   bordercolor="#ffffff"
   borderopacity="1"
   inkscape:showpageshadow="0"
   inkscape:pageopacity="0"
   inkscape:pagecheckerboard="1"
   inkscape:deskcolor="#505050"
   showgrid="false"
   inkscape:zoom="8.9567676"
   inkscape:cx="3.851836"
   inkscape:cy="44.100731"
   inkscape:window-width="3840"
   inkscape:window-height="1137"
   inkscape:window-x="-8"
   inkscape:window-y="-8"
   inkscape:window-maximized="1"
   inkscape:current-layer="g17"
   inkscape:document-rotation="0" />

<g
   id="g17"
   inkscape:label="patch"
   transform="rotate(15,43,43)"
   style="display:inline;opacity:1"><path
     id="rect13"
     style="display:inline;fill:none;fill-rule:evenodd;stroke:#ffffff;stroke-width:0.371303;stroke-dasharray:none;stroke-opacity:1"
     d="m 8.147723,27.112675 42.760354,-4.95e-4 c 2.042176,-2.3e-5 3.686219,1.643954 3.686195,3.686047 l -1.02e-4,8.846616 c -2.4e-5,2.042094 -1.644105,3.686109 -3.68628,3.686133 L 8.147535,43.33147 c -2.0421754,2.4e-5 -3.6862183,-1.643953 -3.6861947,-3.686047 l 1.023e-4,-8.846616 c 2.36e-5,-2.042094 1.6441041,-3.686109 3.6862804,-3.686132 z" /><path
     id="rect14"
     style="display:inline;fill:#ffffff;fill-opacity:1;fill-rule:evenodd;stroke-width:0.742605"
     d="m 22.007643,26.664865 c -0.605318,0.187487 -1.041805,0.750309 -1.041805,1.418839 l -4.89e-4,14.108837 c 0,0.822806 0.662243,1.485045 1.48505,1.485045 l 14.108836,4.89e-4 c 0.822807,0 1.485045,-0.662243 1.485045,-1.48505 l 4.89e-4,-14.108837 c 0,-0.822806 -0.662243,-1.485044 -1.48505,-1.485044 l -14.108836,-4.89e-4 c -0.154277,0 -0.303551,0.02295 -0.44324,0.06621 z m 3.028684,2.583505 a 1.4852101,1.4852101 0 0 1 0.384398,-0.05044 1.4852101,1.4852101 0 0 1 1.48505,1.485045 1.4852101,1.4852101 0 0 1 -1.485045,1.48505 1.4852101,1.4852101 0 0 1 -1.485049,-1.485045 1.4852101,1.4852101 0 0 1 1.100646,-1.434605 z m 8.168648,5e-4 a 1.4852101,1.4852101 0 0 1 0.384023,-0.05185 1.4852101,1.4852101 0 0 1 1.485425,1.486446 1.4852101,1.4852101 0 0 1 -1.485045,1.48505 1.4852101,1.4852101 0 0 1 -1.485425,-1.486446 1.4852101,1.4852101 0 0 1 1.101022,-1.433204 z m -8.168633,8.909784 a 1.4852101,1.4852101 0 0 1 0.384398,-0.05045 1.4852101,1.4852101 0 0 1 1.485425,1.486446 1.4852101,1.4852101 0 0 1 -1.485045,1.485049 1.4852101,1.4852101 0 0 1 -1.485425,-1.486446 1.4852101,1.4852101 0 0 1 1.100647,-1.434604 z m 8.168648,4.99e-4 a 1.4852101,1.4852101 0 0 1 0.384398,-0.05045 1.4852101,1.4852101 0 0 1 1.485049,1.485045 1.4852101,1.4852101 0 0 1 -1.485044,1.48505 1.4852101,1.4852101 0 0 1 -1.48505,-1.485046 1.4852101,1.4852101 0 0 1 1.100647,-1.434604 z" /><text
     xml:space="preserve"
     id="text16"
     style="font-size:18.6667px;text-align:start;writing-mode:lr-tb;direction:ltr;white-space:pre;shape-inside:url(#rect17);display:inline;opacity:1;fill:#ffffff;fill-opacity:1;fill-rule:evenodd;stroke-width:0.836272"
     transform="matrix(0.88799503,0,0,0.88799503,4.5478508,-9.3247402)"><tspan
       x="42.695312"
       y="49.048821"
       id="tspan342">_</tspan></text><text
     xml:space="preserve"
     id="text14"
     style="font-size:18.6667px;text-align:start;writing-mode:lr-tb;direction:ltr;white-space:pre;shape-inside:url(#rect15);shape-padding:0;display:inline;opacity:1;fill:#ffffff;fill-opacity:1;fill-rule:evenodd;stroke-width:0.890306"
     transform="matrix(0.84643061,0,0,0.82195048,-2.8106298,-3.8840209)"
     inkscape:label="text14"><tspan
       x="12.982422"
       y="53.667961"
       id="tspan344">+</tspan></text></g>
</svg>
