<?xml version="1.0" encoding="UTF-8" standalone="no"?>
<svg
   xmlns:dc="http://purl.org/dc/elements/1.1/"
   xmlns:cc="http://creativecommons.org/ns#"
   xmlns:rdf="http://www.w3.org/1999/02/22-rdf-syntax-ns#"
   xmlns:svg="http://www.w3.org/2000/svg"
   xmlns="http://www.w3.org/2000/svg"
   xmlns:xlink="http://www.w3.org/1999/xlink"
   xmlns:sodipodi="http://sodipodi.sourceforge.net/DTD/sodipodi-0.dtd"
   xmlns:inkscape="http://www.inkscape.org/namespaces/inkscape"
   version="1.1"
   x="0px"
   y="0px"
   width="86px"
   height="86px"
   viewBox="0 0 86 86"
   enable-background="new 0 0 86 86"
   xml:space="preserve"
   id="svg9"
   sodipodi:docname="patchmanager_v2.svg"
   inkscape:version="1.0.1 (3bc2e813f5, 2020-09-07)"
   inkscape:export-filename="/home/user1/git/Sailfish-icons/other/general/patchmanager/patchmanager.086_v2.png"
   inkscape:export-xdpi="96"
   inkscape:export-ydpi="96"><title
   id="title36">Patchmanager's app icon</title><metadata
   id="metadata34"><rdf:RDF><cc:Work
       rdf:about=""><dc:format>image/svg+xml</dc:format><dc:type
         rdf:resource="http://purl.org/dc/dcmitype/StillImage" /><dc:title>Patchmanager's app icon</dc:title><cc:license
         rdf:resource="https://spdx.org/licenses/BSD-3-Clause.html" /><dc:creator><cc:Agent><dc:title>marbalf (MBF)</dc:title></cc:Agent></dc:creator><dc:contributor><cc:Agent><dc:title>olf (Olf0)</dc:title></cc:Agent></dc:contributor><dc:description>Application icon for &quot;Patchmanager for SailfishOS&quot;</dc:description><dc:date>June 2025</dc:date><dc:source>https://codeberg.org/marbalf/Sailfish-icons/src/branch/main/other/general/patchmanager</dc:source><dc:rights><cc:Agent><dc:title>BSD 3-Clause &quot;New&quot; or &quot;Revised&quot; License</dc:title></cc:Agent></dc:rights><dc:subject><rdf:Bag><rdf:li>Patchmanager</rdf:li><rdf:li>icon</rdf:li></rdf:Bag></dc:subject><dc:publisher><cc:Agent><dc:title>olf (Olf0)</dc:title></cc:Agent></dc:publisher></cc:Work></rdf:RDF></metadata><defs
   id="defs9"><rect
     x="42.695035"
     y="32.064843"
     width="25.704154"
     height="25.442756"
     id="rect17" /><rect
     x="43.827761"
     y="32.326241"
     width="27.882472"
     height="25.442756"
     id="rect16" /><rect
     x="12.982776"
     y="36.682877"
     width="22.828775"
     height="23.003039"
     id="rect15" /><linearGradient
     id="linearGradient13"
     inkscape:collect="always"><stop
       style="stop-color:#dea267;stop-opacity:1;"
       offset="0.46000001"
       id="stop13" /><stop
       style="stop-color:#e5ac6e;stop-opacity:1;"
       offset="0.54000002"
       id="stop14" /></linearGradient><linearGradient
     id="linearGradient9"
     inkscape:collect="always"><stop
       style="stop-color:#6e9088;stop-opacity:1;"
       offset="0"
       id="stop9" /><stop
       style="stop-color:#ccccc2;stop-opacity:1;"
       offset="1"
       id="stop10" /></linearGradient><linearGradient
     inkscape:collect="always"
     xlink:href="#linearGradient9"
     id="linearGradient10"
     x1="0.30000001"
     y1="85.635574"
     x2="85.264183"
     y2="0.67139196"
     gradientUnits="userSpaceOnUse"
     gradientTransform="matrix(0.99998171,0,0,0.99998171,7.86738e-4,7.86738e-4)" /><linearGradient
     inkscape:collect="always"
     xlink:href="#linearGradient13"
     id="linearGradient14"
     x1="40.165054"
     y1="53.449471"
     x2="45.834946"
     y2="32.289139"
     gradientUnits="userSpaceOnUse"
     gradientTransform="rotate(-15,43,43)" /></defs><sodipodi:namedview
   id="namedview9"
   pagecolor="#505050"
   bordercolor="#ffffff"
   borderopacity="1"
   inkscape:showpageshadow="0"
   inkscape:pageopacity="0"
   inkscape:pagecheckerboard="1"
   inkscape:deskcolor="#505050"
   showgrid="false"
   inkscape:zoom="8.9567676"
   inkscape:cx="38.128541"
   inkscape:cy="44.358631"
   inkscape:window-width="1920"
   inkscape:window-height="1025"
   inkscape:window-x="0"
   inkscape:window-y="0"
   inkscape:window-maximized="1"
   inkscape:current-layer="svg9"
   inkscape:document-rotation="0" />

<g
   id="Layer_1"
   inkscape:label="base"
   transform="matrix(1.0000183,0,0,1.0000183,-7.8675239e-4,-7.8675239e-4)"
   style="display:inline;opacity:1;stroke-width:0.999982">
	
		<linearGradient
   id="SVGID_1_"
   gradientUnits="userSpaceOnUse"
   x1="671.85449"
   y1="85.283096"
   x2="756.42072"
   y2="0.71689999"
   gradientTransform="translate(-671.1376)">
		<stop
   offset="0"
   style="stop-color:#F7D6B3"
   id="stop1" />
		<stop
   offset="0.5"
   style="stop-color:#777F81"
   id="stop2" />
		<stop
   offset="0.9951"
   style="stop-color:#F6FFE4"
   id="stop3" />
	</linearGradient>
	<path
   id="path3"
   style="display:inline;fill:url(#linearGradient10);stroke-width:0.999982"
   d="M 43,0.30078125 C 19.417,0.30078125 0.30078125,19.418 0.30078125,43 v 41.277344 c 0,0.786 0.635875,1.421875 1.42187495,1.421875 H 31.101562 c 0.107572,-0.301527 0.342341,-1.04128 0.591797,-1.257813 0.03324,-0.02313 0.204342,-0.142919 0.238282,-0.162109 0.254468,-0.143911 0.561384,-0.173378 0.833984,-0.267578 0.728567,-0.255556 1.438609,-0.557406 2.15625,-0.841797 0.757161,-0.210966 1.44421,-0.587208 2.148437,-0.929688 0.145323,-0.07058 0.287843,-0.145487 0.435547,-0.210937 0.367903,-0.163017 0.783065,-0.240301 1.107422,-0.490235 0.03583,-0.03459 0.07423,-0.06835 0.107422,-0.105468 0.02626,-0.02936 0.04123,-0.06717 0.07031,-0.09375 v -0.002 h 0.002 0.002 v 0.002 h 0.002 0.002 l 0.002,0.002 0.002,0.002 0.002,0.002 0.002,0.002 0.002,0.002 h 0.002 0.002 0.002 c 0.04228,-0.112361 -0.03514,-0.272352 -0.02734,-0.382812 -0.08311,-0.396783 -0.225174,-0.776387 -0.521484,-1.066406 -0.260536,-0.253385 -0.392189,-0.607295 -0.539063,-0.933594 -0.08756,-0.277505 -0.109651,-0.557466 -0.138671,-0.845703 -0.0301,-0.558836 0.148395,-0.844015 0.439453,-1.316406 0.338993,-0.530802 0.66405,-1.069176 1.048828,-1.56836 0.34112,-0.720336 0.869702,-1.329402 1.302734,-1.99414 0.222139,-0.276394 0.261522,-0.350455 0.509766,-0.574219 0.182503,-0.164505 0.414742,-0.266218 0.609375,-0.414063 0.308614,-0.252391 1.205076,-0.85937 1.205076,-0.85937 0.02032,-0.832607 -0.0098,-1.369966 0.0058,-2.203129 -2.97e-4,-0.773084 -0.08134,-1.53589 -0.330078,-2.273437 -0.248629,-0.776924 -0.514677,-1.552051 -0.861328,-2.291016 -0.134737,-0.265567 -0.10658,-0.21936 -0.261719,-0.482422 -0.143807,-0.243846 -0.302745,-0.483565 -0.310547,-0.777343 -0.06136,-0.422815 -0.221184,-0.825016 -0.208984,-1.257813 -0.031,-0.396735 -0.06565,-0.792861 -0.132812,-1.185547 -0.109804,-0.642029 -0.05017,-0.160576 -0.164063,-0.794922 -0.02058,-0.114628 -0.03206,-0.232409 -0.04883,-0.347656 -0.02277,-0.745943 -0.08399,-1.488751 -0.144531,-2.232422 0.0018,-0.403813 0.03602,-0.78793 0.291015,-1.121094 0.02123,-0.02597 0.104937,-0.120016 0.123047,-0.160156 0.0425,-0.09418 0.05528,-0.200215 0.0918,-0.296875 0.09527,-0.252146 0.122656,-0.273037 0.265625,-0.517578 0.368986,-0.504196 0.78875,-0.999103 0.94336,-1.619141 0.12537,-0.854156 0.396949,-1.669539 0.753906,-2.455078 0.11759,-0.507842 0.103608,-1.032675 0.167968,-1.548828 0.03907,-0.51523 0.0065,-1.03073 -0.002,-1.546875 -0.01888,-1.127704 -0.01808,-2.259868 0.144532,-3.378906 0.168741,-1.105657 0.331239,-2.25076 0.859375,-3.251953 0.180394,-0.458423 0.03187,-0.05642 0.214843,-0.654297 0.267177,-0.873005 0.587394,-1.731838 0.746094,-2.634766 0.04517,-0.272369 0.103276,-0.542117 0.134766,-0.816406 0.143471,-1.249863 0.0032,-2.529856 -0.273438,-3.75 -0.07167,-0.230753 -0.130054,-0.465142 -0.214843,-0.691406 -0.10093,-0.269336 -0.305004,-0.677611 -0.466797,-0.935547 -0.103625,-0.165229 -0.139232,-0.214025 -0.152344,-0.22461 l -0.002,-0.002 h -0.002 v -0.002 h -0.002 v 0.002 h -0.002 v 0.002 0.002 c -1.9e-4,8.71e-4 -0.0017,0.0051 -0.002,0.0059 v 0.002 h -0.002 -0.002 -0.002 -0.002 l -0.002,-0.002 c -0.01485,-0.01272 -0.0489,-0.05685 -0.125,-0.169922 -0.0305,-0.04531 -0.05113,-0.09599 -0.07617,-0.144531 -0.10323,-0.417702 -0.03748,-0.853412 -0.07813,-1.279297 -0.03918,-0.834106 -0.109334,-1.666606 -0.109375,-2.501953 -0.005,-0.327814 -0.0072,-0.659248 0.08789,-0.976563 0.140173,-0.430738 0.236111,-0.68846 0.587891,-1 0.409486,-0.426462 0.868587,-0.80483 1.240234,-1.265625 0.09999,-0.144009 0.207892,-0.281002 0.300782,-0.429687 0.194554,-0.311418 0.268452,-0.692651 0.496093,-0.988281 0.47187,-0.813638 0.917466,-1.650508 1.642578,-2.273438 0.566328,-0.537439 1.19389,-1.017303 1.666016,-1.646484 0.06154,-0.08789 0.391892,-0.557348 0.451172,-0.648438 0.214736,-0.329975 0.390605,-0.687173 0.636719,-0.996094 0.127648,-0.214793 0.133485,-0.340154 0.197265,-0.582031 0.08035,-0.304742 0.183323,-0.603015 0.302735,-0.894531 0.169159,-0.35427 0.348178,-0.703621 0.664062,-0.951172 0.472083,-0.380162 0.944371,-0.757499 1.416016,-1.138672 0.652559,-0.49776 1.365715,-0.908072 2.009765,-1.417968 0.425944,-0.358662 0.854985,-0.712261 1.30856,-1.03548 C 56.287048,11.443468 56.11147,11.265711 55.949219,11.072266 55.413183,10.552278 54.833301,10.0766 54.345703,9.5078125 53.895241,8.9565413 53.606184,8.5939027 53.646484,7.8574219 53.650097,7.4069152 53.660111,6.9454911 53.824219,6.5195312 53.984588,6.0113085 53.948089,5.4625104 54.005859,4.9375 V 2.7460938 0.30078125 Z m 11.005859,0 0.480469,0.0136719 0.01953,2.43164065 V 4.9375 c -0.04802,0.5774611 -0.03824,1.1692238 -0.203125,1.7285156 -0.149743,0.3802884 -0.15345,0.7924545 -0.15625,1.1953125 -0.0312,0.6347643 0.19151,0.8503909 0.585938,1.328125 0.477846,0.5519807 1.041721,1.0167749 1.564453,1.5234379 0.176145,0.206005 0.364025,0.398604 0.566406,0.578125 0.03377,0.02996 0.08428,0.04934 0.09961,0.0918 0.03808,0.105523 0.07285,0.221664 0.05273,0.332032 -0.0159,0.08722 -0.101364,0.144257 -0.152344,0.216797 -0.466716,0.356815 -0.927257,0.721148 -1.376953,1.099609 -0.647081,0.518982 -1.369353,0.928222 -2.027344,1.431641 -0.357739,0.253926 -0.672591,0.562526 -1.017578,0.832031 -0.232105,0.181321 -0.298195,0.230434 -0.298828,0.228516 -0.02953,0.02394 -0.03782,0.03017 -0.08984,0.07226 -0.257118,0.200687 -0.388555,0.487966 -0.52539,0.775391 -0.107094,0.267165 -0.202481,0.539761 -0.275391,0.818359 -0.02179,0.08326 -0.07254,0.344188 -0.107422,0.429688 -0.03576,0.08766 -0.08752,0.167783 -0.130859,0.251953 -0.248764,0.317543 -0.429157,0.680552 -0.648438,1.017578 -0.07861,0.12082 -0.38256,0.550724 -0.46875,0.673828 -0.486456,0.661238 -1.140713,1.161585 -1.730468,1.722656 -0.689695,0.591032 -1.106604,1.391317 -1.554688,2.164063 -0.219146,0.293551 -0.299462,0.659451 -0.486328,0.96875 -0.01587,0.02627 -0.327184,0.472722 -0.333984,0.482422 -0.380493,0.488271 -0.861558,0.882663 -1.289063,1.328125 -0.112181,0.129144 -0.251411,0.232255 -0.332031,0.386718 -0.06671,0.127806 -0.09638,0.283538 -0.140625,0.419922 -0.07467,0.265115 -0.06875,0.541742 -0.06445,0.814453 7.6e-5,0.830095 0.07042,1.657459 0.109375,2.486329 0.05549,0.388643 -0.03789,0.798514 0.0625,1.179687 0.09064,0.06118 0.255705,0.301742 0.291015,0.357422 0.186912,0.29472 0.399401,0.706548 0.519532,1.023437 0.093,0.24533 0.157208,0.501799 0.236328,0.751954 0.295348,1.278227 0.444262,2.617052 0.296875,3.927734 -0.03275,0.291243 -0.09356,0.577912 -0.140625,0.867187 -0.161401,0.927718 -0.491175,1.812352 -0.765625,2.708985 -0.187709,0.613259 -0.02173,0.154909 -0.22461,0.68164 -0.513689,0.96833 -0.667189,2.076043 -0.830078,3.146485 -0.157952,1.091357 -0.157162,2.195223 -0.138672,3.294922 0.01202,0.531262 0.03938,1.061374 0.002,1.591797 -0.06045,0.542259 -0.06087,1.087528 -0.179687,1.621093 -0.337567,0.77926 -0.627326,1.57507 -0.748047,2.417969 -0.15489,0.708641 -0.617813,1.270884 -1.035156,1.841797 -0.172517,0.189538 -0.185263,0.447046 -0.283203,0.667969 -0.07092,0.159966 -0.100734,0.183301 -0.205078,0.320312 -0.182735,0.24477 -0.18529,0.522544 -0.185547,0.814453 0.06361,0.73784 0.121751,1.476465 0.144531,2.216797 0.01498,0.09553 0.02709,0.190116 0.04492,0.285156 0.07838,0.417751 0.08337,0.336549 0.158203,0.773438 0.07062,0.412309 0.107855,0.827573 0.140625,1.24414 -0.0078,0.420961 0.143678,0.81251 0.205078,1.22461 3.28e-4,0.230502 0.129375,0.399584 0.242188,0.589844 0.15942,0.268861 0.140163,0.239155 0.28125,0.515625 0.359368,0.762673 0.63556,1.562892 0.892578,2.365234 0.26433,0.786641 0.352315,1.601223 0.353515,2.425781 -0.0089,0.474839 0.04006,1.427473 0.0332,1.902336 0.48596,0.09602 0.857492,0.203635 1.375001,0.386725 0.310272,0.177267 0.634943,0.33269 0.917968,0.552734 0.05643,0.05568 0.06948,0.06728 0.07422,0.07227 l 0.002,0.002 c 0.002,0.0029 0.0048,0.0084 0.02148,0.0293 0.162754,0.10009 0.09477,0.05611 0.306641,0.248047 0.543046,0.618966 1.137515,1.193311 1.636719,1.849609 0.133549,0.190112 0.204826,0.431735 0.394531,0.574219 0.334791,0.05155 0.673921,0.04657 1.011719,0.04297 0.269172,0.003 0.57612,-0.07408 0.796875,0.13086 0.05948,0.05522 0.09487,0.131606 0.142578,0.197266 0.102657,0.223905 0.127915,0.464321 0.140625,0.707031 0.006,0.113988 -0.0121,0.207252 0.03906,0.3125 0.02217,0.04561 0.06026,0.08186 0.08984,0.123047 0.04758,0.06373 0.09434,0.128176 0.142578,0.191406 0.160481,0.210331 0.446449,0.668949 0.658204,0.810547 0.281965,0.209007 0.472486,0.505846 0.673828,0.787109 0.04442,0.06927 0.055,0.307182 0.06641,0.388672 l 0.02734,0.195312 -0.351563,-0.253906 c -0.0395,-0.06201 -0.112844,-0.113771 -0.152344,-0.175781 -0.172868,-0.241501 -0.327234,-0.365824 -0.568359,-0.546875 -0.38063,-0.311606 -0.614435,-0.763935 -0.925781,-1.138672 -0.04921,-0.09013 -0.109315,-0.175754 -0.146485,-0.271484 -0.106673,-0.274734 -0.0072,-0.589671 -0.117187,-0.865235 -0.0079,-0.02875 0.0014,-0.06485 -0.01758,-0.08789 l -0.002,-0.002 c -9.93e-4,-7.11e-4 -0.0028,-0.0013 -0.0039,-0.002 -0.07919,-0.0374 -0.426068,0.02353 -0.486328,0 -0.444004,0.0046 -0.913241,0.03906 -1.326172,-0.15039 -0.219317,-0.178125 -0.351448,-0.419909 -0.484375,-0.666016 -0.479085,-0.634064 -1.057361,-1.180838 -1.576172,-1.78125 -0.05593,-0.05218 -0.09884,-0.122149 -0.164062,-0.162109 -0.07991,-0.04896 -0.161564,-0.08811 -0.214844,-0.169922 -0.248744,-0.212354 -0.568145,-0.327394 -0.841797,-0.501953 -0.403819,-0.139335 -1.041782,-0.282813 -1.158204,-0.31446 -0.19423,0.166588 -0.508509,0.387859 -1.062848,0.769867 -0.15235,0.104988 -0.203151,0.149429 -0.34375,0.265625 -0.194953,0.159866 -0.440589,0.256386 -0.626953,0.427734 -0.181676,0.167037 -0.258675,0.282809 -0.419922,0.486329 -0.403539,0.63649 -0.920659,1.205778 -1.240234,1.892578 -0.04554,0.07005 -0.08868,0.142577 -0.136719,0.210937 -0.06713,0.09553 -0.263785,0.34087 -0.328125,0.4375 -0.212921,0.319801 -0.410262,0.654506 -0.617187,0.978516 -0.117786,0.219719 -0.278703,0.432955 -0.351563,0.675781 -0.03239,0.107894 -0.01561,0.231994 -0.0078,0.341797 0.032,0.244888 0.03293,0.483803 0.113281,0.71875 0.114172,0.209791 0.216586,0.571924 0.402344,0.722656 0.374351,0.359498 0.562158,0.831824 0.671875,1.328125 0.08987,0.500412 0.0503,0.65823 -0.306641,1.029297 -0.363007,0.322739 -0.84981,0.41162 -1.28125,0.603516 -0.134852,0.05998 -0.265923,0.130332 -0.398438,0.195312 -0.730223,0.358774 -1.446176,0.742925 -2.232421,0.962891 -0.704911,0.286687 -1.407056,0.577426 -2.125,0.830078 -0.234524,0.07572 -0.483384,0.122354 -0.714844,0.208984 -0.08002,0.02995 -0.171931,0.113996 -0.238281,0.160156 -0.139694,0.167184 -0.171693,0.259992 -0.226563,0.466797 l -0.101562,0.38086 H 43 C 66.583,85.699219 85.699219,66.582 85.699219,43 V 1.7226562 c 0,-0.78599995 -0.635875,-1.42187495 -1.421875,-1.42187495 z M 45.632812,72.136719 c -0.0067,-0.0041 -0.01196,-0.009 -0.01953,-0.01367 h -0.002 v 0.002 c 0.0082,0.01028 0.04368,0.04408 0.05273,0.05078 -0.01393,-0.01663 -0.02399,-0.02998 -0.03125,-0.03906 z M 56.472656,11.613281 c 0.01957,0.01791 0.04076,0.03501 0.06055,0.05274 0.02273,0.02036 0.0641,0.07888 0.08398,0.09375 l 0.002,0.002 h 0.002 0.002 0.002 v -0.002 l 0.002,-0.002 v -0.002 c 8.9e-5,-0.0011 3.4e-5,-0.0026 0,-0.0039 -0.005,-0.193728 -0.06019,-0.166725 -0.140625,-0.148437 -0.004,0.0029 -0.0096,0.0069 -0.01367,0.0098 z"
   sodipodi:nodetypes="ssssccccccscsccccccccccccccccccccccscccccsccsscccsscccccccscccscccccccccccccccccsccccccscccscsccccccccccccsccccccccscscccscccsscscccsccsccccsscscscccccccscccssccscccccccccccccsccscsccscccccsccccccccscccscsccsscscccccscccsccccssscccccccccscccccccccccc" />
	
	
	
	
	
	
</g><g
   id="g17"
   inkscape:label="patch"
   transform="rotate(15,43,43)"
   style="display:inline;opacity:1"><rect
     style="display:inline;fill:url(#linearGradient14);fill-rule:evenodd;stroke-width:1"
     id="rect13"
     width="68"
     height="22"
     x="9"
     y="32"
     rx="4.9999995"
     ry="5" /><rect
     style="display:inline;fill:#ecb777;fill-opacity:1;fill-rule:evenodd"
     id="rect14"
     width="23"
     height="23"
     x="31.5"
     y="31.5"
     rx="2"
     ry="2" /><text
     xml:space="preserve"
     id="text16"
     style="font-size:18.6667px;text-align:start;writing-mode:lr-tb;direction:ltr;white-space:pre;shape-inside:url(#rect17);display:inline;fill:#f1150d;fill-opacity:1;fill-rule:evenodd;stroke-width:0.836272;"
     transform="matrix(1.1957837,0,0,1.1957837,9.6894858,-17.059706)"><tspan
       x="42.695312"
       y="49.228868"><tspan>_</tspan></tspan></text><text
     xml:space="preserve"
     id="text14"
     style="font-size:18.6667px;text-align:start;writing-mode:lr-tb;direction:ltr;white-space:pre;shape-inside:url(#rect15);shape-padding:0;display:inline;fill:#28d943;fill-opacity:1;fill-rule:evenodd;stroke-width:0.890306;"
     transform="matrix(1.1398126,0,0,1.1068474,-0.57444868,-9.7636516)"
     inkscape:label="text14"><tspan
       x="12.982422"
       y="53.848008"><tspan>+</tspan></tspan></text><circle
     style="display:inline;fill:#ffffff;fill-opacity:1;fill-rule:evenodd;stroke-width:1"
     id="path17"
     cx="37.5"
     cy="37"
     r="2" /><circle
     style="display:inline;fill:#ffffff;fill-opacity:1;fill-rule:evenodd;stroke-width:1"
     id="circle17"
     cx="37.5"
     cy="49"
     r="2" /><circle
     style="display:inline;fill:#ffffff;fill-opacity:1;fill-rule:evenodd;stroke-width:1"
     id="circle18"
     cx="48.5"
     cy="37"
     r="2" /><circle
     style="display:inline;fill:#ffffff;fill-opacity:1;fill-rule:evenodd;stroke-width:1"
     id="circle19"
     cx="48.5"
     cy="49"
     r="2" /></g>
</svg>
