<?xml version="1.0" encoding="UTF-8" standalone="no"?>
<!-- Created with Inkscape (http://www.inkscape.org/) -->

<svg
   xmlns:dc="http://purl.org/dc/elements/1.1/"
   xmlns:cc="http://creativecommons.org/ns#"
   xmlns:rdf="http://www.w3.org/1999/02/22-rdf-syntax-ns#"
   xmlns:svg="http://www.w3.org/2000/svg"
   xmlns="http://www.w3.org/2000/svg"
   xmlns:xlink="http://www.w3.org/1999/xlink"
   xmlns:sodipodi="http://sodipodi.sourceforge.net/DTD/sodipodi-0.dtd"
   xmlns:inkscape="http://www.inkscape.org/namespaces/inkscape"
   width="64"
   height="64"
   id="svg2"
   version="1.1"
   inkscape:version="0.48.4 r9939"
   sodipodi:docname="settings-patchmanager2.svg"
   inkscape:export-filename="C:\Users\Stephan\Desktop\settings-patchmanager2-l.png"
   inkscape:export-xdpi="90"
   inkscape:export-ydpi="90">
  <defs
     id="defs4">
    <linearGradient
       id="linearGradient3823">
      <stop
         style="stop-color:#ffffff;stop-opacity:0.39215687;"
         offset="0"
         id="stop3825" />
      <stop
         style="stop-color:#ffffff;stop-opacity:0.50196081;"
         offset="1"
         id="stop3827" />
    </linearGradient>
    <linearGradient
       inkscape:collect="always"
       xlink:href="#linearGradient3823"
       id="linearGradient3955"
       gradientUnits="userSpaceOnUse"
       gradientTransform="matrix(1.2691341,0.34006346,-0.34006346,1.2691341,9.4102164,-26.272032)"
       x1="30"
       y1="46"
       x2="30"
       y2="48" />
    <linearGradient
       id="linearGradient3823-7">
      <stop
         style="stop-color:#ffffff;stop-opacity:0.39215687;"
         offset="0"
         id="stop3825-4" />
      <stop
         style="stop-color:#ffffff;stop-opacity:0.50196081;"
         offset="1"
         id="stop3827-0" />
    </linearGradient>
    <linearGradient
       y2="48"
       x2="30"
       y1="46"
       x1="30"
       gradientTransform="matrix(1.2411901,0.31843037,-0.33257589,1.1883983,10.259893,-27.549514)"
       gradientUnits="userSpaceOnUse"
       id="linearGradient3873"
       xlink:href="#linearGradient3823-7"
       inkscape:collect="always" />
    <linearGradient
       id="linearGradient3823-8">
      <stop
         style="stop-color:#ffffff;stop-opacity:0.39215687;"
         offset="0"
         id="stop3825-8" />
      <stop
         style="stop-color:#ffffff;stop-opacity:0.50196081;"
         offset="1"
         id="stop3827-2" />
    </linearGradient>
    <linearGradient
       y2="48"
       x2="30"
       y1="46"
       x1="30"
       gradientTransform="matrix(1.231426,0.33047274,-0.34226398,1.1856573,11.173431,-22.002734)"
       gradientUnits="userSpaceOnUse"
       id="linearGradient3907"
       xlink:href="#linearGradient3823-8"
       inkscape:collect="always" />
    <linearGradient
       inkscape:collect="always"
       xlink:href="#linearGradient3823-8"
       id="linearGradient3931"
       gradientUnits="userSpaceOnUse"
       gradientTransform="matrix(1.231426,0.33047274,-0.34226398,1.1856573,11.173431,-22.002734)"
       x1="30"
       y1="46"
       x2="30"
       y2="48" />
    <linearGradient
       inkscape:collect="always"
       xlink:href="#linearGradient3823"
       id="linearGradient3934"
       gradientUnits="userSpaceOnUse"
       gradientTransform="matrix(1.2691341,0.34006346,-0.34006346,1.2691341,9.4102164,-26.272032)"
       x1="30"
       y1="46"
       x2="30"
       y2="48" />
  </defs>
  <sodipodi:namedview
     id="base"
     pagecolor="#8700b7"
     bordercolor="#666666"
     borderopacity="1.0"
     inkscape:pageopacity="0"
     inkscape:pageshadow="2"
     inkscape:zoom="5.6568542"
     inkscape:cx="186.13357"
     inkscape:cy="34.543429"
     inkscape:document-units="px"
     inkscape:current-layer="layer2"
     showgrid="true"
     inkscape:window-width="2560"
     inkscape:window-height="1387"
     inkscape:window-x="-8"
     inkscape:window-y="-8"
     inkscape:window-maximized="1"
     inkscape:snap-bbox="true"
     inkscape:snap-global="false">
    <inkscape:grid
       type="xygrid"
       id="grid2985"
       empspacing="5"
       visible="false"
       enabled="true"
       snapvisiblegridlinesonly="true" />
  </sodipodi:namedview>
  <metadata
     id="metadata7">
    <rdf:RDF>
      <cc:Work
         rdf:about="">
        <dc:format>image/svg+xml</dc:format>
        <dc:type
           rdf:resource="http://purl.org/dc/dcmitype/StillImage" />
        <dc:title></dc:title>
      </cc:Work>
    </rdf:RDF>
  </metadata>
  <g
     inkscape:groupmode="layer"
     id="layer2"
     inkscape:label="Ebene"
     style="display:inline"
     transform="translate(0,6) scale(0.666)">
    <path
       style="fill:#ffffff;fill-opacity:1;fill-rule:evenodd;stroke:none"
       d="M 12.96875 23.96875 C 10.167842 24.076813 7.6403553 25.956155 6.875 28.8125 L 2.8125 44.0625 C 1.8705242 47.578001 3.9532486 51.151774 7.46875 52.09375 L 81.0625 71.8125 C 84.578001 72.754476 88.183024 70.703001 89.125 67.1875 L 93.1875 51.9375 C 94.129476 48.421999 92.046751 44.848226 88.53125 43.90625 L 14.9375 24.1875 C 14.278343 24.01088 13.615113 23.943812 12.96875 23.96875 z M 14.1875 25.09375 C 14.81645 25.076461 15.454177 25.140863 16.09375 25.3125 L 87.5 44.46875 C 90.911051 45.384159 92.916821 48.746982 91.96875 52.03125 L 87.875 66.28125 C 86.926928 69.56552 83.379801 71.47791 79.96875 70.5625 L 8.5625 51.375 C 5.1514506 50.459591 3.1769287 47.09677 4.125 43.8125 L 8.21875 29.5625 C 8.9890582 26.89403 11.462046 25.16867 14.1875 25.09375 z "
       transform="translate(0,-6)"
       id="rect3767" />
    <path
       style="fill:#ffffff;fill-opacity:1;stroke:none"
       d="M 36.75 29.4375 C 36.263833 29.504601 35.854159 29.869647 35.71875 30.375 L 28.5625 57.125 C 28.381955 57.798804 28.763696 58.475705 29.4375 58.65625 L 58.75 66.53125 C 59.423804 66.711795 60.100705 66.298804 60.28125 65.625 L 67.4375 38.875 C 67.618045 38.201196 67.236304 37.524295 66.5625 37.34375 L 37.25 29.46875 C 37.081549 29.423614 36.912056 29.415133 36.75 29.4375 z M 43.40625 36.0625 C 43.554794 36.045673 43.691242 36.053345 43.84375 36.0625 C 44.018045 36.072963 44.199769 36.109297 44.375 36.15625 C 45.776847 36.531874 46.594374 37.973153 46.21875 39.375 C 45.843126 40.776847 44.401847 41.594374 43 41.21875 C 41.598153 40.843126 40.780626 39.401847 41.15625 38 C 41.443837 36.926711 42.366442 36.180292 43.40625 36.0625 z M 56.03125 39.46875 C 56.369341 39.421676 56.712038 39.468594 57.0625 39.5625 C 58.464347 39.938124 59.313124 41.379403 58.9375 42.78125 C 58.561876 44.183097 57.120597 45.000624 55.71875 44.625 C 54.316903 44.249376 53.468126 42.808097 53.84375 41.40625 C 54.125468 40.354865 55.016978 39.609972 56.03125 39.46875 z M 39.3125 51.28125 C 39.461899 51.264423 39.628742 51.272095 39.78125 51.28125 C 39.955545 51.291713 40.106019 51.328047 40.28125 51.375 C 41.683097 51.750624 42.531874 53.191903 42.15625 54.59375 C 41.780626 55.995597 40.339347 56.813124 38.9375 56.4375 C 37.535653 56.061876 36.686876 54.620597 37.0625 53.21875 C 37.350087 52.145461 38.26671 51.399042 39.3125 51.28125 z M 52.46875 54.6875 C 52.643045 54.697963 52.824769 54.734297 53 54.78125 C 54.401847 55.156874 55.219374 56.598153 54.84375 58 C 54.468126 59.401847 53.026847 60.219374 51.625 59.84375 C 50.223153 59.468126 49.405626 58.026847 49.78125 56.625 C 50.109921 55.398384 51.248685 54.614262 52.46875 54.6875 z "
       transform="translate(0,-6)"
       id="rect3769" />
    <path
       sodipodi:type="arc"
       style="opacity:0.5;fill:#ffffff;fill-opacity:1;stroke:none;display:inline"
       id="path3771"
       sodipodi:cx="38"
       sodipodi:cy="38"
       sodipodi:rx="2"
       sodipodi:ry="2"
       d="m 40,38 c 0,1.104569 -0.895431,2 -2,2 -1.104569,0 -2,-0.895431 -2,-2 0,-1.104569 0.895431,-2 2,-2 1.104569,0 2,0.895431 2,2 z"
       transform="matrix(1.2691341,0.34006346,-0.34006346,1.2691341,8.3900265,-28.46463)" />
    <path
       transform="matrix(1.2691341,0.34006346,-0.34006346,1.2691341,21.081367,-25.063995)"
       sodipodi:type="arc"
       style="opacity:0.5;fill:#ffffff;fill-opacity:1;stroke:none;display:inline"
       id="path3771-1"
       sodipodi:cx="38"
       sodipodi:cy="38"
       sodipodi:rx="2"
       sodipodi:ry="2"
       d="m 40,38 c 0,1.104569 -0.895431,2 -2,2 -1.104569,0 -2,-0.895431 -2,-2 0,-1.104569 0.895431,-2 2,-2 1.104569,0 2,0.895431 2,2 z" />
    <path
       transform="matrix(1.2691341,0.34006346,-0.34006346,1.2691341,4.3092645,-13.235021)"
       sodipodi:type="arc"
       style="opacity:0.5;fill:#ffffff;fill-opacity:1;stroke:none;display:inline"
       id="path3771-7"
       sodipodi:cx="38"
       sodipodi:cy="38"
       sodipodi:rx="2"
       sodipodi:ry="2"
       d="m 40,38 c 0,1.104569 -0.895431,2 -2,2 -1.104569,0 -2,-0.895431 -2,-2 0,-1.104569 0.895431,-2 2,-2 1.104569,0 2,0.895431 2,2 z" />
    <path
       transform="matrix(1.2691341,0.34006346,-0.34006346,1.2691341,17.000605,-9.8343855)"
       sodipodi:type="arc"
       style="opacity:0.5;fill:#ffffff;fill-opacity:1;stroke:none;display:inline"
       id="path3771-1-4"
       sodipodi:cx="38"
       sodipodi:cy="38"
       sodipodi:rx="2"
       sodipodi:ry="2"
       d="m 40,38 c 0,1.104569 -0.895431,2 -2,2 -1.104569,0 -2,-0.895431 -2,-2 0,-1.104569 0.895431,-2 2,-2 1.104569,0 2,0.895431 2,2 z" />
    <path
       inkscape:connector-curvature="0"
       style="fill:#ffffff;fill-opacity:1;fill-rule:evenodd;stroke:none;display:inline;opacity:0.75"
       d="m 20.09375,27.40625 1.25,0.34375 -1.65625,6.125 5.65625,1.5 -0.3125,1.15625 -5.625,-1.5 -1.65625,6.125 -1.25,-0.34375 1.65625,-6.125 -5.65625,-1.5 0.3125,-1.15625 5.625,1.5 1.65625,-6.125 z"
       id="path3043" />
    <path
       inkscape:connector-curvature="0"
       style="fill:#ffffff;fill-opacity:1;fill-rule:evenodd;stroke:none;display:inline;opacity:0.75"
       d="M 71.90625,48.53125 80.84375,50.9375 80.4375,52.5 71.5,50.125 71.90625,48.53125 z"
       id="path3838" />
  </g>
</svg>
